<svg xmlns="http://www.w3.org/2000/svg" viewBox="0 0 64 64" role="img" aria-label="ONES4">
  <defs>
    <linearGradient id="g" x1="0%" y1="0%" x2="100%" y2="100%">
      <stop offset="0%" stop-color="#06B6D4"/>
      <stop offset="50%" stop-color="#8B5CF6"/>
      <stop offset="100%" stop-color="#F97316"/>
    </linearGradient>
  </defs>
  <rect width="64" height="64" rx="12" fill="#0B0C15"/>
  <rect x="6" y="6" width="52" height="52" rx="10" fill="url(#g)" opacity="0.15"/>
  <path
    d="M22 44V20h6.2c3.4 0 5.8 2.3 5.8 5.7 0 2.5-1.4 4.6-3.6 5.4L36.6 44h-5.1l-4.5-7.4H27V44h-5ZM27 25.6v5.2c2 0 3.3-1 3.3-2.6 0-1.6-1.1-2.6-3.3-2.6Zm9.4 12.9c0-4.1 3-7 7.2-7s7.2 2.9 7.2 7-3 7-7.2 7-7.2-2.9-7.2-7Zm10.3 0c0-1.9-1.3-3.2-3.1-3.2s-3.1 1.3-3.1 3.2c0 1.9 1.3 3.2 3.1 3.2s3.1-1.3 3.1-3.2Z"
    fill="#F7F7FF"
  />
</svg>
